<svg width="346" height="210" viewBox="0 0 346 210" fill="none" xmlns="http://www.w3.org/2000/svg">
<path d="M159 65H342C344.209 65 346 66.7909 346 69V194C346 196.209 344.209 198 342 198H102L159 65Z" fill="#F5F5F5"/>
<rect x="298" y="150" width="40" height="40" rx="4" fill="white"/>
<path d="M329.2 170.198C329.2 172.817 328.48 175.386 327.12 177.619C325.761 179.852 323.814 181.663 321.496 182.852C319.178 184.041 316.578 184.562 313.985 184.356C311.391 184.15 308.904 183.227 306.8 181.687L311.565 175.972C312.584 176.604 313.753 176.95 314.951 176.976C316.148 177.001 317.33 176.704 318.376 176.116C319.421 175.528 320.292 174.67 320.898 173.63C321.504 172.59 321.823 171.406 321.823 170.2C321.823 168.994 321.504 167.81 320.898 166.77C320.292 165.73 319.421 164.872 318.376 164.284C317.33 163.696 316.148 163.399 314.951 163.424C313.753 163.45 312.584 163.796 311.565 164.428L306.8 158.713C308.904 157.173 311.391 156.25 313.985 156.044C316.578 155.838 319.178 156.359 321.496 157.548C323.814 158.737 325.761 160.548 327.12 162.781C328.48 165.014 329.2 167.583 329.2 170.202V170.198Z" fill="#7451EB"/>
<g filter="url(#filter0_d_735_14263)">
<path d="M192 0C212.062 2.39237e-07 231.609 6.35122 247.84 18.1434C264.07 29.9356 276.151 46.5633 282.35 65.6434C288.55 84.7235 288.55 105.276 282.35 124.357C276.151 143.437 264.07 160.064 247.84 171.857C231.609 183.649 212.062 190 192 190C171.938 190 152.391 183.649 136.16 171.857C119.93 160.064 107.849 143.437 101.65 124.357C95.4501 105.276 95.4501 84.7235 101.65 65.6434L192 95V0Z" fill="white"/>
</g>
<mask id="path-5-inside-1_735_14263" fill="white">
<path d="M192 0C212.062 2.39237e-07 231.609 6.35122 247.84 18.1434C264.07 29.9356 276.151 46.5633 282.35 65.6434C288.55 84.7235 288.55 105.276 282.35 124.357C276.151 143.437 264.07 160.064 247.84 171.857C231.609 183.649 212.062 190 192 190C171.938 190 152.391 183.649 136.16 171.857C119.93 160.064 107.849 143.437 101.65 124.357C95.4501 105.276 95.4501 84.7235 101.65 65.6434L192 95V0Z"/>
</mask>
<path d="M192 0C212.062 2.39237e-07 231.609 6.35122 247.84 18.1434C264.07 29.9356 276.151 46.5633 282.35 65.6434C288.55 84.7235 288.55 105.276 282.35 124.357C276.151 143.437 264.07 160.064 247.84 171.857C231.609 183.649 212.062 190 192 190C171.938 190 152.391 183.649 136.16 171.857C119.93 160.064 107.849 143.437 101.65 124.357C95.4501 105.276 95.4501 84.7235 101.65 65.6434L192 95V0Z" fill="#7451EB" fill-opacity="0.08" stroke="#7451EB" stroke-width="3" mask="url(#path-5-inside-1_735_14263)"/>
<path d="M187 3C169.05 3 151.56 8.68267 137.038 19.2336C122.516 29.7844 111.707 44.6619 106.16 61.7336L187 88V3Z" fill="white"/>
<mask id="path-7-inside-2_735_14263" fill="white">
<path d="M187 3C169.05 3 151.56 8.68267 137.038 19.2336C122.516 29.7844 111.707 44.6619 106.16 61.7336L187 88V3Z"/>
</mask>
<path d="M187 3C169.05 3 151.56 8.68267 137.038 19.2336C122.516 29.7844 111.707 44.6619 106.16 61.7336L187 88V3Z" fill="#0277BD" fill-opacity="0.16" stroke="#0277BD" stroke-width="2" mask="url(#path-7-inside-2_735_14263)"/>
<path d="M28.4646 111.376C29.0886 111.688 29.5626 112.096 29.8866 112.6C30.2226 113.104 30.3906 113.686 30.3906 114.346C30.3906 115.126 30.1686 115.81 29.7246 116.398C29.2806 116.974 28.6566 117.424 27.8526 117.748C27.0486 118.06 26.1186 118.216 25.0626 118.216C24.0066 118.216 23.0766 118.06 22.2726 117.748C21.4806 117.424 20.8626 116.974 20.4186 116.398C19.9866 115.81 19.7706 115.126 19.7706 114.346C19.7706 113.686 19.9326 113.104 20.2566 112.6C20.5926 112.096 21.0666 111.688 21.6786 111.376C21.2106 111.088 20.8506 110.728 20.5986 110.296C20.3466 109.852 20.2206 109.348 20.2206 108.784C20.2206 108.052 20.4246 107.416 20.8326 106.876C21.2406 106.336 21.8106 105.922 22.5426 105.634C23.2746 105.334 24.1146 105.184 25.0626 105.184C26.0226 105.184 26.8686 105.334 27.6006 105.634C28.3446 105.922 28.9206 106.336 29.3286 106.876C29.7366 107.416 29.9406 108.052 29.9406 108.784C29.9406 109.348 29.8146 109.852 29.5626 110.296C29.3106 110.728 28.9446 111.088 28.4646 111.376ZM25.0626 107.326C24.4746 107.326 24.0006 107.47 23.6406 107.758C23.2926 108.034 23.1186 108.418 23.1186 108.91C23.1186 109.39 23.2926 109.768 23.6406 110.044C23.9886 110.32 24.4626 110.458 25.0626 110.458C25.6626 110.458 26.1426 110.32 26.5026 110.044C26.8626 109.768 27.0426 109.39 27.0426 108.91C27.0426 108.418 26.8626 108.034 26.5026 107.758C26.1426 107.47 25.6626 107.326 25.0626 107.326ZM25.0626 116.074C25.7946 116.074 26.3706 115.912 26.7906 115.588C27.2226 115.252 27.4386 114.808 27.4386 114.256C27.4386 113.704 27.2226 113.266 26.7906 112.942C26.3706 112.618 25.7946 112.456 25.0626 112.456C24.3426 112.456 23.7726 112.618 23.3526 112.942C22.9326 113.266 22.7226 113.704 22.7226 114.256C22.7226 114.82 22.9326 115.264 23.3526 115.588C23.7726 115.912 24.3426 116.074 25.0626 116.074ZM37.1254 118.216C36.0814 118.216 35.1514 117.958 34.3354 117.442C33.5194 116.926 32.8774 116.182 32.4094 115.21C31.9534 114.226 31.7254 113.056 31.7254 111.7C31.7254 110.344 31.9534 109.18 32.4094 108.208C32.8774 107.224 33.5194 106.474 34.3354 105.958C35.1514 105.442 36.0814 105.184 37.1254 105.184C38.1694 105.184 39.0994 105.442 39.9154 105.958C40.7314 106.474 41.3674 107.224 41.8234 108.208C42.2914 109.18 42.5254 110.344 42.5254 111.7C42.5254 113.056 42.2914 114.226 41.8234 115.21C41.3674 116.182 40.7314 116.926 39.9154 117.442C39.0994 117.958 38.1694 118.216 37.1254 118.216ZM37.1254 115.75C37.8934 115.75 38.4934 115.42 38.9254 114.76C39.3694 114.1 39.5914 113.08 39.5914 111.7C39.5914 110.32 39.3694 109.3 38.9254 108.64C38.4934 107.98 37.8934 107.65 37.1254 107.65C36.3694 107.65 35.7694 107.98 35.3254 108.64C34.8934 109.3 34.6774 110.32 34.6774 111.7C34.6774 113.08 34.8934 114.1 35.3254 114.76C35.7694 115.42 36.3694 115.75 37.1254 115.75ZM46.8582 112.204C45.9342 112.204 45.1782 111.892 44.5902 111.268C44.0142 110.632 43.7262 109.786 43.7262 108.73C43.7262 107.674 44.0142 106.834 44.5902 106.21C45.1782 105.574 45.9342 105.256 46.8582 105.256C47.7822 105.256 48.5322 105.574 49.1082 106.21C49.6842 106.834 49.9722 107.674 49.9722 108.73C49.9722 109.786 49.6842 110.632 49.1082 111.268C48.5322 111.892 47.7822 112.204 46.8582 112.204ZM54.3642 105.4H56.5062L47.9022 118H45.7602L54.3642 105.4ZM46.8582 110.728C47.2662 110.728 47.5842 110.56 47.8122 110.224C48.0522 109.888 48.1722 109.39 48.1722 108.73C48.1722 108.07 48.0522 107.572 47.8122 107.236C47.5842 106.9 47.2662 106.732 46.8582 106.732C46.4622 106.732 46.1442 106.906 45.9042 107.254C45.6642 107.59 45.5442 108.082 45.5442 108.73C45.5442 109.378 45.6642 109.876 45.9042 110.224C46.1442 110.56 46.4622 110.728 46.8582 110.728ZM55.4082 118.144C54.8082 118.144 54.2682 118.006 53.7882 117.73C53.3202 117.442 52.9542 117.034 52.6902 116.506C52.4262 115.978 52.2942 115.366 52.2942 114.67C52.2942 113.974 52.4262 113.362 52.6902 112.834C52.9542 112.306 53.3202 111.904 53.7882 111.628C54.2682 111.34 54.8082 111.196 55.4082 111.196C56.3322 111.196 57.0822 111.514 57.6582 112.15C58.2462 112.774 58.5402 113.614 58.5402 114.67C58.5402 115.726 58.2462 116.572 57.6582 117.208C57.0822 117.832 56.3322 118.144 55.4082 118.144ZM55.4082 116.668C55.8162 116.668 56.1342 116.5 56.3622 116.164C56.6022 115.816 56.7222 115.318 56.7222 114.67C56.7222 114.022 56.6022 113.53 56.3622 113.194C56.1342 112.846 55.8162 112.672 55.4082 112.672C55.0122 112.672 54.6942 112.84 54.4542 113.176C54.2142 113.512 54.0942 114.01 54.0942 114.67C54.0942 115.33 54.2142 115.828 54.4542 116.164C54.6942 116.5 55.0122 116.668 55.4082 116.668Z" fill="#7451EB"/>
<path d="M13.1075 135.52C13.8968 135.52 14.6115 135.701 15.2515 136.064C15.8915 136.416 16.3928 136.917 16.7555 137.568C17.1182 138.219 17.2995 138.96 17.2995 139.792C17.2995 140.635 17.1182 141.381 16.7555 142.032C16.3928 142.683 15.8915 143.189 15.2515 143.552C14.6222 143.904 13.9075 144.08 13.1075 144.08C12.4248 144.08 11.8062 143.941 11.2515 143.664C10.7075 143.376 10.2595 142.96 9.9075 142.416V147.104H8.7715V135.584H9.8595V137.248C10.2008 136.693 10.6488 136.267 11.2035 135.968C11.7688 135.669 12.4035 135.52 13.1075 135.52ZM13.0275 143.072C13.6142 143.072 14.1475 142.939 14.6275 142.672C15.1075 142.395 15.4808 142.005 15.7475 141.504C16.0248 141.003 16.1635 140.432 16.1635 139.792C16.1635 139.152 16.0248 138.587 15.7475 138.096C15.4808 137.595 15.1075 137.205 14.6275 136.928C14.1475 136.651 13.6142 136.512 13.0275 136.512C12.4302 136.512 11.8915 136.651 11.4115 136.928C10.9422 137.205 10.5688 137.595 10.2915 138.096C10.0248 138.587 9.8915 139.152 9.8915 139.792C9.8915 140.432 10.0248 141.003 10.2915 141.504C10.5688 142.005 10.9422 142.395 11.4115 142.672C11.8915 142.939 12.4302 143.072 13.0275 143.072ZM20.7033 137.232C20.9699 136.667 21.3646 136.24 21.8873 135.952C22.4206 135.664 23.0766 135.52 23.8553 135.52V136.624L23.5833 136.608C22.6979 136.608 22.0046 136.88 21.5033 137.424C21.0019 137.968 20.7513 138.731 20.7513 139.712V144H19.6153V135.584H20.7033V137.232ZM28.8405 135.52C29.9392 135.52 30.7818 135.797 31.3685 136.352C31.9552 136.896 32.2485 137.707 32.2485 138.784V144H31.1605V142.688C30.9045 143.125 30.5258 143.467 30.0245 143.712C29.5338 143.957 28.9472 144.08 28.2645 144.08C27.3258 144.08 26.5792 143.856 26.0245 143.408C25.4698 142.96 25.1925 142.368 25.1925 141.632C25.1925 140.917 25.4485 140.341 25.9605 139.904C26.4832 139.467 27.3098 139.248 28.4405 139.248H31.1125V138.736C31.1125 138.011 30.9098 137.461 30.5045 137.088C30.0992 136.704 29.5072 136.512 28.7285 136.512C28.1952 136.512 27.6832 136.603 27.1925 136.784C26.7018 136.955 26.2805 137.195 25.9285 137.504L25.4165 136.656C25.8432 136.293 26.3552 136.016 26.9525 135.824C27.5498 135.621 28.1792 135.52 28.8405 135.52ZM28.4405 143.184C29.0805 143.184 29.6298 143.04 30.0885 142.752C30.5472 142.453 30.8885 142.027 31.1125 141.472V140.096H28.4725C27.0325 140.096 26.3125 140.597 26.3125 141.6C26.3125 142.091 26.4992 142.48 26.8725 142.768C27.2458 143.045 27.7685 143.184 28.4405 143.184ZM39.766 143.488C39.5527 143.68 39.286 143.829 38.966 143.936C38.6567 144.032 38.3313 144.08 37.99 144.08C37.2007 144.08 36.5927 143.867 36.166 143.44C35.7393 143.013 35.526 142.411 35.526 141.632V136.544H34.022V135.584H35.526V133.744H36.662V135.584H39.222V136.544H36.662V141.568C36.662 142.069 36.7847 142.453 37.03 142.72C37.286 142.976 37.6487 143.104 38.118 143.104C38.3527 143.104 38.5767 143.067 38.79 142.992C39.014 142.917 39.206 142.811 39.366 142.672L39.766 143.488ZM41.834 135.584H42.97V144H41.834V135.584ZM42.41 133.744C42.1753 133.744 41.978 133.664 41.818 133.504C41.658 133.344 41.578 133.152 41.578 132.928C41.578 132.715 41.658 132.528 41.818 132.368C41.978 132.208 42.1753 132.128 42.41 132.128C42.6447 132.128 42.842 132.208 43.002 132.368C43.162 132.517 43.242 132.699 43.242 132.912C43.242 133.147 43.162 133.344 43.002 133.504C42.842 133.664 42.6447 133.744 42.41 133.744ZM53.8109 135.584V147.104H52.6749V142.416C52.3229 142.96 51.8695 143.376 51.3149 143.664C50.7709 143.941 50.1575 144.08 49.4749 144.08C48.6749 144.08 47.9549 143.904 47.3149 143.552C46.6855 143.189 46.1895 142.683 45.8269 142.032C45.4642 141.381 45.2829 140.635 45.2829 139.792C45.2829 138.96 45.4642 138.219 45.8269 137.568C46.1895 136.917 46.6909 136.416 47.3309 136.064C47.9709 135.701 48.6855 135.52 49.4749 135.52C50.1789 135.52 50.8082 135.669 51.3629 135.968C51.9282 136.267 52.3815 136.693 52.7229 137.248V135.584H53.8109ZM49.5709 143.072C50.1575 143.072 50.6855 142.939 51.1549 142.672C51.6349 142.395 52.0082 142.005 52.2749 141.504C52.5522 141.003 52.6909 140.432 52.6909 139.792C52.6909 139.152 52.5522 138.587 52.2749 138.096C52.0082 137.595 51.6349 137.205 51.1549 136.928C50.6855 136.651 50.1575 136.512 49.5709 136.512C48.9735 136.512 48.4349 136.651 47.9549 136.928C47.4855 137.205 47.1122 137.595 46.8349 138.096C46.5682 138.587 46.4349 139.152 46.4349 139.792C46.4349 140.432 46.5682 141.003 46.8349 141.504C47.1122 142.005 47.4855 142.395 47.9549 142.672C48.4349 142.939 48.9735 143.072 49.5709 143.072ZM64.5586 135.584V144H63.4706V142.464C63.172 142.976 62.7613 143.376 62.2386 143.664C61.716 143.941 61.1186 144.08 60.4466 144.08C59.348 144.08 58.4786 143.776 57.8386 143.168C57.2093 142.549 56.8946 141.648 56.8946 140.464V135.584H58.0306V140.352C58.0306 141.237 58.2493 141.909 58.6866 142.368C59.124 142.827 59.748 143.056 60.5586 143.056C61.444 143.056 62.1426 142.789 62.6546 142.256C63.1666 141.712 63.4226 140.96 63.4226 140V135.584H64.5586ZM75.0683 140.144H68.0283C68.0923 141.019 68.4283 141.728 69.0363 142.272C69.6443 142.805 70.4123 143.072 71.3403 143.072C71.8629 143.072 72.3429 142.981 72.7803 142.8C73.2176 142.608 73.5963 142.331 73.9163 141.968L74.5563 142.704C74.1829 143.152 73.7136 143.493 73.1483 143.728C72.5936 143.963 71.9803 144.08 71.3083 144.08C70.4443 144.08 69.6763 143.899 69.0043 143.536C68.3429 143.163 67.8256 142.651 67.4523 142C67.0789 141.349 66.8923 140.613 66.8923 139.792C66.8923 138.971 67.0683 138.235 67.4203 137.584C67.7829 136.933 68.2736 136.427 68.8923 136.064C69.5216 135.701 70.2256 135.52 71.0043 135.52C71.7829 135.52 72.4816 135.701 73.1003 136.064C73.7189 136.427 74.2043 136.933 74.5563 137.584C74.9083 138.224 75.0843 138.96 75.0843 139.792L75.0683 140.144ZM71.0043 136.496C70.1936 136.496 69.5109 136.757 68.9563 137.28C68.4123 137.792 68.1029 138.464 68.0283 139.296H73.9963C73.9216 138.464 73.6069 137.792 73.0523 137.28C72.5083 136.757 71.8256 136.496 71.0043 136.496Z" fill="black" fill-opacity="0.92"/>
<path d="M32.7752 30.624V33H23.2532V31.11L28.1132 26.52C28.6292 26.028 28.9772 25.608 29.1572 25.26C29.3372 24.9 29.4272 24.546 29.4272 24.198C29.4272 23.694 29.2532 23.31 28.9052 23.046C28.5692 22.77 28.0712 22.632 27.4112 22.632C26.8592 22.632 26.3612 22.74 25.9172 22.956C25.4732 23.16 25.1012 23.472 24.8012 23.892L22.6772 22.524C23.1692 21.792 23.8472 21.222 24.7112 20.814C25.5752 20.394 26.5652 20.184 27.6812 20.184C28.6172 20.184 29.4332 20.34 30.1292 20.652C30.8372 20.952 31.3832 21.384 31.7672 21.948C32.1632 22.5 32.3612 23.154 32.3612 23.91C32.3612 24.594 32.2172 25.236 31.9292 25.836C31.6412 26.436 31.0832 27.12 30.2552 27.888L27.3572 30.624H32.7752ZM39.3432 33.216C38.2992 33.216 37.3692 32.958 36.5532 32.442C35.7372 31.926 35.0952 31.182 34.6272 30.21C34.1712 29.226 33.9432 28.056 33.9432 26.7C33.9432 25.344 34.1712 24.18 34.6272 23.208C35.0952 22.224 35.7372 21.474 36.5532 20.958C37.3692 20.442 38.2992 20.184 39.3432 20.184C40.3872 20.184 41.3172 20.442 42.1332 20.958C42.9492 21.474 43.5852 22.224 44.0412 23.208C44.5092 24.18 44.7432 25.344 44.7432 26.7C44.7432 28.056 44.5092 29.226 44.0412 30.21C43.5852 31.182 42.9492 31.926 42.1332 32.442C41.3172 32.958 40.3872 33.216 39.3432 33.216ZM39.3432 30.75C40.1112 30.75 40.7112 30.42 41.1432 29.76C41.5872 29.1 41.8092 28.08 41.8092 26.7C41.8092 25.32 41.5872 24.3 41.1432 23.64C40.7112 22.98 40.1112 22.65 39.3432 22.65C38.5872 22.65 37.9872 22.98 37.5432 23.64C37.1112 24.3 36.8952 25.32 36.8952 26.7C36.8952 28.08 37.1112 29.1 37.5432 29.76C37.9872 30.42 38.5872 30.75 39.3432 30.75ZM49.076 27.204C48.152 27.204 47.396 26.892 46.808 26.268C46.232 25.632 45.944 24.786 45.944 23.73C45.944 22.674 46.232 21.834 46.808 21.21C47.396 20.574 48.152 20.256 49.076 20.256C50 20.256 50.75 20.574 51.326 21.21C51.902 21.834 52.19 22.674 52.19 23.73C52.19 24.786 51.902 25.632 51.326 26.268C50.75 26.892 50 27.204 49.076 27.204ZM56.582 20.4H58.724L50.12 33H47.978L56.582 20.4ZM49.076 25.728C49.484 25.728 49.802 25.56 50.03 25.224C50.27 24.888 50.39 24.39 50.39 23.73C50.39 23.07 50.27 22.572 50.03 22.236C49.802 21.9 49.484 21.732 49.076 21.732C48.68 21.732 48.362 21.906 48.122 22.254C47.882 22.59 47.762 23.082 47.762 23.73C47.762 24.378 47.882 24.876 48.122 25.224C48.362 25.56 48.68 25.728 49.076 25.728ZM57.626 33.144C57.026 33.144 56.486 33.006 56.006 32.73C55.538 32.442 55.172 32.034 54.908 31.506C54.644 30.978 54.512 30.366 54.512 29.67C54.512 28.974 54.644 28.362 54.908 27.834C55.172 27.306 55.538 26.904 56.006 26.628C56.486 26.34 57.026 26.196 57.626 26.196C58.55 26.196 59.3 26.514 59.876 27.15C60.464 27.774 60.758 28.614 60.758 29.67C60.758 30.726 60.464 31.572 59.876 32.208C59.3 32.832 58.55 33.144 57.626 33.144ZM57.626 31.668C58.034 31.668 58.352 31.5 58.58 31.164C58.82 30.816 58.94 30.318 58.94 29.67C58.94 29.022 58.82 28.53 58.58 28.194C58.352 27.846 58.034 27.672 57.626 27.672C57.23 27.672 56.912 27.84 56.672 28.176C56.432 28.512 56.312 29.01 56.312 29.67C56.312 30.33 56.432 30.828 56.672 31.164C56.912 31.5 57.23 31.668 57.626 31.668Z" fill="#0277BD"/>
<path d="M19.0385 60.424C18.7985 60.64 18.4985 60.808 18.1385 60.928C17.7905 61.036 17.4245 61.09 17.0405 61.09C16.1525 61.09 15.4685 60.85 14.9885 60.37C14.5085 59.89 14.2685 59.212 14.2685 58.336V52.612H12.5765V51.532H14.2685V49.462H15.5465V51.532H18.4265V52.612H15.5465V58.264C15.5465 58.828 15.6845 59.26 15.9605 59.56C16.2485 59.848 16.6565 59.992 17.1845 59.992C17.4485 59.992 17.7005 59.95 17.9405 59.866C18.1925 59.782 18.4085 59.662 18.5885 59.506L19.0385 60.424ZM26.189 51.46C27.377 51.46 28.319 51.808 29.015 52.504C29.723 53.188 30.077 54.19 30.077 55.51V61H28.799V55.636C28.799 54.652 28.553 53.902 28.061 53.386C27.569 52.87 26.867 52.612 25.955 52.612C24.935 52.612 24.125 52.918 23.525 53.53C22.937 54.13 22.643 54.964 22.643 56.032V61H21.365V47.644H22.643V53.188C22.991 52.636 23.471 52.21 24.083 51.91C24.695 51.61 25.397 51.46 26.189 51.46ZM41.8258 56.662H33.9058C33.9778 57.646 34.3558 58.444 35.0398 59.056C35.7238 59.656 36.5878 59.956 37.6318 59.956C38.2198 59.956 38.7598 59.854 39.2518 59.65C39.7438 59.434 40.1698 59.122 40.5298 58.714L41.2498 59.542C40.8298 60.046 40.3018 60.43 39.6658 60.694C39.0418 60.958 38.3518 61.09 37.5958 61.09C36.6238 61.09 35.7598 60.886 35.0038 60.478C34.2598 60.058 33.6778 59.482 33.2578 58.75C32.8378 58.018 32.6278 57.19 32.6278 56.266C32.6278 55.342 32.8258 54.514 33.2218 53.782C33.6298 53.05 34.1818 52.48 34.8778 52.072C35.5858 51.664 36.3778 51.46 37.2538 51.46C38.1298 51.46 38.9158 51.664 39.6118 52.072C40.3078 52.48 40.8538 53.05 41.2498 53.782C41.6458 54.502 41.8438 55.33 41.8438 56.266L41.8258 56.662ZM37.2538 52.558C36.3418 52.558 35.5738 52.852 34.9498 53.44C34.3378 54.016 33.9898 54.772 33.9058 55.708H40.6198C40.5358 54.772 40.1818 54.016 39.5578 53.44C38.9458 52.852 38.1778 52.558 37.2538 52.558ZM38.5498 47.824H40.2598L37.3438 50.056H36.0838L38.5498 47.824ZM48.3151 61.09C47.4031 61.09 46.5811 60.886 45.8491 60.478C45.1171 60.058 44.5411 59.482 44.1211 58.75C43.7011 58.018 43.4911 57.19 43.4911 56.266C43.4911 55.342 43.7011 54.514 44.1211 53.782C44.5411 53.05 45.1171 52.48 45.8491 52.072C46.5811 51.664 47.4031 51.46 48.3151 51.46C49.2271 51.46 50.0491 51.664 50.7811 52.072C51.5131 52.48 52.0831 53.05 52.4911 53.782C52.9111 54.514 53.1211 55.342 53.1211 56.266C53.1211 57.19 52.9111 58.018 52.4911 58.75C52.0831 59.482 51.5131 60.058 50.7811 60.478C50.0491 60.886 49.2271 61.09 48.3151 61.09ZM48.3151 59.956C48.9871 59.956 49.5871 59.806 50.1151 59.506C50.6551 59.194 51.0751 58.756 51.3751 58.192C51.6751 57.628 51.8251 56.986 51.8251 56.266C51.8251 55.546 51.6751 54.904 51.3751 54.34C51.0751 53.776 50.6551 53.344 50.1151 53.044C49.5871 52.732 48.9871 52.576 48.3151 52.576C47.6431 52.576 47.0371 52.732 46.4971 53.044C45.9691 53.344 45.5491 53.776 45.2371 54.34C44.9371 54.904 44.7871 55.546 44.7871 56.266C44.7871 56.986 44.9371 57.628 45.2371 58.192C45.5491 58.756 45.9691 59.194 46.4971 59.506C47.0371 59.806 47.6431 59.956 48.3151 59.956ZM56.9542 53.386C57.2542 52.75 57.6982 52.27 58.2862 51.946C58.8862 51.622 59.6242 51.46 60.5002 51.46V52.702L60.1942 52.684C59.1982 52.684 58.4182 52.99 57.8542 53.602C57.2902 54.214 57.0082 55.072 57.0082 56.176V61H55.7302V51.532H56.9542V53.386ZM62.8142 51.532H64.0922V61H62.8142V51.532ZM63.4622 49.462C63.1982 49.462 62.9762 49.372 62.7962 49.192C62.6162 49.012 62.5262 48.796 62.5262 48.544C62.5262 48.304 62.6162 48.094 62.7962 47.914C62.9762 47.734 63.1982 47.644 63.4622 47.644C63.7262 47.644 63.9482 47.734 64.1282 47.914C64.3082 48.082 64.3982 48.286 64.3982 48.526C64.3982 48.79 64.3082 49.012 64.1282 49.192C63.9482 49.372 63.7262 49.462 63.4622 49.462ZM75.8922 56.662H67.9722C68.0442 57.646 68.4222 58.444 69.1062 59.056C69.7902 59.656 70.6542 59.956 71.6982 59.956C72.2862 59.956 72.8262 59.854 73.3182 59.65C73.8102 59.434 74.2362 59.122 74.5962 58.714L75.3162 59.542C74.8962 60.046 74.3682 60.43 73.7322 60.694C73.1082 60.958 72.4182 61.09 71.6622 61.09C70.6902 61.09 69.8262 60.886 69.0702 60.478C68.3262 60.058 67.7442 59.482 67.3242 58.75C66.9042 58.018 66.6942 57.19 66.6942 56.266C66.6942 55.342 66.8922 54.514 67.2882 53.782C67.6962 53.05 68.2482 52.48 68.9442 52.072C69.6522 51.664 70.4442 51.46 71.3202 51.46C72.1962 51.46 72.9822 51.664 73.6782 52.072C74.3742 52.48 74.9202 53.05 75.3162 53.782C75.7122 54.502 75.9102 55.33 75.9102 56.266L75.8922 56.662ZM71.3202 52.558C70.4082 52.558 69.6402 52.852 69.0162 53.44C68.4042 54.016 68.0562 54.772 67.9722 55.708H74.6862C74.6022 54.772 74.2482 54.016 73.6242 53.44C73.0122 52.852 72.2442 52.558 71.3202 52.558Z" fill="black" fill-opacity="0.92"/>
<path d="M211.506 145.194V146.319C211.506 147.203 210.819 147.942 209.931 148.055L209.646 149.068C209.479 149.614 208.959 150 208.39 150H205.592C204.989 150 204.469 149.614 204.335 149.068L204.05 148.055C203.162 147.942 202.476 147.203 202.476 146.319V145.194C202.476 144.615 202.961 144.117 203.598 144.117H210.417C211.037 144.149 211.506 144.615 211.506 145.194ZM216.75 130.228C216.75 132.736 215.695 135.067 214.002 136.723C212.712 137.992 211.858 139.632 211.59 141.4C211.473 142.14 210.786 142.718 209.981 142.718H203.933C203.129 142.718 202.442 142.172 202.325 141.4C202.04 139.664 201.202 137.992 199.912 136.723C198.254 135.051 197.215 132.816 197.165 130.341C197.131 125.117 201.437 120.905 206.848 120.857C212.361 120.825 216.75 125.036 216.75 130.228ZM208.088 124.57C208.088 123.992 207.602 123.525 206.999 123.525C203.129 123.525 199.946 126.547 199.946 130.293C199.946 130.871 200.432 131.338 201.035 131.338C201.638 131.338 202.124 130.871 202.124 130.293C202.124 127.737 204.302 125.647 206.966 125.647C207.602 125.615 208.088 125.149 208.088 124.57ZM206.999 117.803C207.602 117.803 208.088 117.337 208.088 116.758V113.045C208.088 112.466 207.602 112 206.999 112C206.396 112 205.91 112.466 205.91 113.045V116.758C205.91 117.337 206.396 117.803 206.999 117.803ZM194.048 130.228C194.048 129.65 193.562 129.184 192.959 129.184H189.089C188.486 129.184 188 129.65 188 130.228C188 130.807 188.486 131.273 189.089 131.273H192.959C193.529 131.273 194.048 130.807 194.048 130.228ZM224.909 129.184H221.039C220.436 129.184 219.95 129.65 219.95 130.228C219.95 130.807 220.436 131.273 221.039 131.273H224.909C225.512 131.273 225.998 130.807 225.998 130.228C226.032 129.65 225.546 129.184 224.909 129.184ZM196.26 139.005L193.529 141.641C193.093 142.059 193.093 142.718 193.529 143.152C193.73 143.345 194.015 143.458 194.3 143.458C194.584 143.458 194.869 143.345 195.07 143.152L197.818 140.516C198.254 140.098 198.254 139.439 197.818 139.005C197.399 138.619 196.712 138.619 196.26 139.005ZM216.951 121.757C217.236 121.757 217.521 121.645 217.722 121.452L220.47 118.816C220.905 118.398 220.905 117.739 220.47 117.305C220.034 116.871 219.347 116.887 218.895 117.305L216.147 119.925C215.711 120.343 215.711 121.002 216.147 121.436C216.398 121.629 216.683 121.757 216.951 121.757ZM196.26 121.436C196.461 121.629 196.746 121.741 197.03 121.741C197.315 121.741 197.6 121.629 197.801 121.436C198.237 121.018 198.237 120.359 197.801 119.925L195.053 117.305C194.618 116.887 193.931 116.887 193.479 117.305C193.026 117.723 193.043 118.382 193.479 118.816L196.26 121.436ZM217.722 139.005C217.286 138.587 216.599 138.587 216.147 139.005C215.695 139.423 215.711 140.082 216.147 140.516L218.895 143.152C219.096 143.345 219.38 143.458 219.665 143.458C219.95 143.458 220.235 143.345 220.436 143.152C220.872 142.734 220.872 142.075 220.436 141.641L217.722 139.005Z" fill="#7451EB"/>
<path d="M134.314 29.7266L120.814 16.7266L86.3145 24.2266" stroke="#0277BD"/>
<path d="M75.2126 153.501L83.7412 163L123.661 147" stroke="#7451EB"/>
<path d="M169 33H145C143.52 33 142.333 34.1867 142.333 35.6667V51.6667C142.333 53.1333 143.52 54.3333 145 54.3333H151.666V57H162.333V54.3333H169C170.466 54.3333 171.653 53.1333 171.653 51.6667L171.666 35.6667C171.666 34.1867 170.466 33 169 33ZM169 51.6667H145V35.6667H169V51.6667ZM162.333 43.6667L153 49V38.3333L162.333 43.6667Z" fill="#0277BD"/>
<defs>
<filter id="filter0_d_735_14263" x="97" y="0" width="210" height="210" filterUnits="userSpaceOnUse" color-interpolation-filters="sRGB">
<feFlood flood-opacity="0" result="BackgroundImageFix"/>
<feColorMatrix in="SourceAlpha" type="matrix" values="0 0 0 0 0 0 0 0 0 0 0 0 0 0 0 0 0 0 127 0" result="hardAlpha"/>
<feOffset dx="10" dy="10"/>
<feGaussianBlur stdDeviation="5"/>
<feColorMatrix type="matrix" values="0 0 0 0 0 0 0 0 0 0 0 0 0 0 0 0 0 0 0.1 0"/>
<feBlend mode="normal" in2="BackgroundImageFix" result="effect1_dropShadow_735_14263"/>
<feBlend mode="normal" in="SourceGraphic" in2="effect1_dropShadow_735_14263" result="shape"/>
</filter>
</defs>
</svg>
